<svg xmlns="http://www.w3.org/2000/svg" viewBox="0 0 1600 1000" width="1600" height="1000">
  <rect width="1600" height="1000" fill="#0D1117"/>
  <rect x="0" y="0" width="1600" height="60" fill="#0a1419"/>
  <text x="40" y="38" font-family="ui-monospace, monospace" font-size="20" fill="#00FFD1" font-weight="700">VULNRAP</text>
  <text x="180" y="38" font-family="ui-monospace, monospace" font-size="14" fill="#7A8290">/ results / R-2026-04827</text>
  <rect x="40" y="100" width="1520" height="120" rx="12" fill="#101820" stroke="#00FFD1" stroke-opacity="0.3"/>
  <text x="70" y="145" font-family="sans-serif" font-size="16" fill="#7A8290">SLOP SCORE</text>
  <text x="70" y="200" font-family="ui-monospace, monospace" font-size="56" fill="#FF5C5C" font-weight="700">87 / 100</text>
  <text x="320" y="145" font-family="sans-serif" font-size="16" fill="#7A8290">VERDICT</text>
  <text x="320" y="195" font-family="ui-monospace, monospace" font-size="36" fill="#FF5C5C" font-weight="700">LIKELY AI-SLOP</text>
  <text x="800" y="145" font-family="sans-serif" font-size="16" fill="#7A8290">CWE</text>
  <text x="800" y="195" font-family="ui-monospace, monospace" font-size="28" fill="#E6E8EB">CWE-79 (claimed)</text>
  <text x="1200" y="145" font-family="sans-serif" font-size="16" fill="#7A8290">CONFIDENCE</text>
  <text x="1200" y="195" font-family="ui-monospace, monospace" font-size="28" fill="#00FFD1">0.94</text>
  <g transform="translate(40,260)">
    <text font-family="sans-serif" font-size="18" fill="#E6E8EB" font-weight="700">SIGNALS FIRED (12)</text>
    <g font-family="ui-monospace, monospace" font-size="14" fill="#E6E8EB">
      <rect y="20" width="740" height="44" rx="8" fill="#101820" stroke="#FF5C5C" stroke-opacity="0.4"/>
      <text x="20" y="48" fill="#FF5C5C">CRIT</text> <text x="100" y="48">hallucinated_cve_reference</text> <text x="600" y="48" fill="#7A8290">+22 pts</text>
      <rect y="74" width="740" height="44" rx="8" fill="#101820" stroke="#FF9C40" stroke-opacity="0.4"/>
      <text x="20" y="102" fill="#FF9C40">HIGH</text> <text x="100" y="102">cwe_body_mismatch</text> <text x="600" y="102" fill="#7A8290">+18 pts</text>
      <rect y="128" width="740" height="44" rx="8" fill="#101820" stroke="#FF9C40" stroke-opacity="0.4"/>
      <text x="20" y="156" fill="#FF9C40">HIGH</text> <text x="100" y="156">generic_severity_inflation</text> <text x="600" y="156" fill="#7A8290">+15 pts</text>
      <rect y="182" width="740" height="44" rx="8" fill="#101820" stroke="#FFD24A" stroke-opacity="0.4"/>
      <text x="20" y="210" fill="#FFD24A">MED</text> <text x="100" y="210">low_substance_density</text> <text x="600" y="210" fill="#7A8290">+11 pts</text>
      <rect y="236" width="740" height="44" rx="8" fill="#101820" stroke="#FFD24A" stroke-opacity="0.4"/>
      <text x="20" y="264" fill="#FFD24A">MED</text> <text x="100" y="264">no_repro_steps</text> <text x="600" y="264" fill="#7A8290">+9 pts</text>
      <rect y="290" width="740" height="44" rx="8" fill="#101820" stroke="#7A8290" stroke-opacity="0.3"/>
      <text x="20" y="318" fill="#7A8290">LOW</text> <text x="100" y="318">avri_drift_template_phrasing</text> <text x="600" y="318" fill="#7A8290">+5 pts</text>
    </g>
  </g>
  <g transform="translate(820,260)">
    <text font-family="sans-serif" font-size="18" fill="#E6E8EB" font-weight="700">REPORT EXCERPT</text>
    <rect y="20" width="740" height="320" rx="8" fill="#101820" stroke="#1F2A33"/>
    <g font-family="ui-monospace, monospace" font-size="13" fill="#C8CCD0">
      <text x="20" y="50">A reflected XSS in /search.php (CVE-2024-99999*)</text>
      <text x="20" y="74">allows arbitrary attacker code execution leading</text>
      <text x="20" y="98">to full SYSTEM compromise on every modern</text>
      <text x="20" y="122">browser. Severity: CRITICAL 10.0/10.0.</text>
      <text x="20" y="170" fill="#FF5C5C">^ * fabricated CVE id, no body present</text>
      <text x="20" y="220" fill="#7A8290"># body 240 tokens, references: 0</text>
      <text x="20" y="244" fill="#7A8290"># claimed CWE-79; body matches CWE-200 cluster</text>
    </g>
  </g>
  <text x="40" y="960" font-family="ui-monospace, monospace" font-size="12" fill="#3F4750">vulnrap.com — public preview, redacted</text>
</svg>
